{
  "accessors": [
    {
      "bufferView": 2,
      "componentType": 5126,
      "count": 28872,
      "max": [
        0.13495953381061554,
        0.08730310201644897,
        0.042574990540742874
      ],
      "min": [
        -0.13426223397254944,
        -0.08811573684215546,
        -0.036849245429039
      ],
      "type": "VEC3"
    },
    {
      "bufferView": 2,
      "byteOffset": 346464,
      "componentType": 5126,
      "count": 28872,
      "max": [
        0.9995449185371399,
        0.9999905228614807,
        0.999970018863678
      ],
      "min": [
        -0.9999520182609558,
        -0.9999994039535522,
        -0.9999354481697083
      ],
      "type": "VEC3"
    },
    {
      "bufferView": 1,
      "componentType": 5126,
      "count": 28872,
      "max": [
        0.999896764755249,
        0.9985979199409485
      ],
      "min": [
        6.9683510446338914e-06,
        5.850807428942062e-05
      ],
      "type": "VEC2"
    },
    {
      "bufferView": 0,
      "componentType": 5125,
      "count": 150000,
      "type": "SCALAR"
    }
  ],
  "asset": {
    "extras": {
      "author": "Spark Studio (https://sketchfab.com/photorobot)",
      "license": "CC-BY-NC-SA-4.0 (http://creativecommons.org/licenses/by-nc-sa/4.0/)",
      "source": "https://sketchfab.com/3d-models/fish-tank-rock-84d48cabb7f8441a9c8121b31a3da73d",
      "title": "수조 인테리어 돌 어항 바위 / Fish tank Rock"
    },
    "generator": "Sketchfab-15.36.0",
    "version": "2.0"
  },
  "bufferViews": [
    {
      "buffer": 0,
      "byteLength": 600000,
      "name": "floatBufferViews",
      "target": 34963
    },
    {
      "buffer": 0,
      "byteLength": 230976,
      "byteOffset": 600000,
      "byteStride": 8,
      "name": "floatBufferViews",
      "target": 34962
    },
    {
      "buffer": 0,
      "byteLength": 692928,
      "byteOffset": 830976,
      "byteStride": 12,
      "name": "floatBufferViews",
      "target": 34962
    }
  ],
  "buffers": [
    {
      "byteLength": 1523904,
      "uri": "rocks.bin"
    }
  ],
  "extensionsUsed": [
    "KHR_materials_unlit"
  ],
    "images": [
    {
      "uri": "material_emissive.jpeg"
    }
  ],
  "materials": [
    {
      "emissiveFactor": [
        1.0,
        1.0,
        1.0
      ],
      "emissiveTexture": {
        "index": 0
      },
      "extensions": {
        "KHR_materials_unlit": {}
      },
      "name": "material",
      "pbrMetallicRoughness": {
        "baseColorFactor": [
          0.0,
          0.0,
          0.0,
          1.0
        ],
        "metallicFactor": 0.0
      }
    }
  ],
  "meshes": [
    {
      "name": "baked_mesh",
      "primitives": [
        {
          "attributes": {
            "NORMAL": 1,
            "POSITION": 0,
            "TEXCOORD_0": 2
          },
          "indices": 3,
          "material": 0,
          "mode": 4
        }
      ]
    }
  ],
  "nodes": [
    {
      "children": [
        1
      ],
      "matrix": [
        1.0,
        0.0,
        0.0,
        0.0,
        0.0,
        2.220446049250313e-16,
        -1.0,
        0.0,
        0.0,
        1.0,
        2.220446049250313e-16,
        0.0,
        0.0,
        0.0,
        0.0,
        1.0
      ],
      "name": "Sketchfab_model"
    },
    {
      "children": [
        2
      ],
      "matrix": [
        1.0,
        0.0,
        0.0,
        0.0,
        0.0,
        2.220446049250313e-16,
        1.0,
        0.0,
        0.0,
        -1.0,
        2.220446049250313e-16,
        0.0,
        0.0,
        0.0,
        0.0,
        1.0
      ],
      "name": "USDRoot"
    },
    {
      "children": [
        3
      ],
      "name": "baked_mesh"
    },
    {
      "children": [
        4
      ],
      "name": "Geom"
    },
    {
      "mesh": 0,
      "name": "baked_mesh"
    }
  ],
  "samplers": [
    {
      "magFilter": 9729,
      "minFilter": 9987,
      "wrapS": 10497,
      "wrapT": 10497
    }
  ],
  "scene": 0,
  "scenes": [
    {
      "name": "Sketchfab_Scene",
      "nodes": [
        0
      ]
    }
  ],
  "textures": [
    {
      "sampler": 0,
      "source": 0
    }
  ]
}
